<svg xmlns="http://www.w3.org/2000/svg" viewBox="0 0 68.2 82.4"><defs><style>.a{fill:#9d5025;}.b{fill:#f58536;}</style></defs><title>Compute_AmazonEC2</title>
    <polygon class="a" points="3.4 15.4 0 17.1 0 65.3 3.4 67 17.3 42.5 3.4 15.4"/>
    <polygon class="b" points="11.4 65.2 3.4 67 3.4 15.4 11.4 17.2 11.4 65.2"/>
    <polygon class="a" points="7.2 13.5 11.4 11.4 31.4 43.4 11.4 71 7.2 68.9 7.2 13.5"/>
    <polygon class="b" points="21.3 68.2 11.4 71 11.4 11.4 21.3 14.2 21.3 68.2"/>
    <polygon class="a" points="16.1 9 21.3 6.4 50.8 46.9 21.3 76 16.1 73.4 16.1 9"/>
    <polygon class="b" points="34.1 71.3 21.3 76 21.3 6.4 34.1 11.1 34.1 71.3"/>
    <polygon class="a" points="27.3 3.4 34.1 0 65.9 43.5 34.1 82.4 27.3 79 27.3 3.4"/>
    <polygon class="b" points="68.2 65.3 34.1 82.4 34.1 0 68.2 17.1 68.2 65.3"/></svg>