<svg xmlns="http://www.w3.org/2000/svg" viewBox="0 0 68.6 68.8"><defs><style>.a{fill:#875078;}.b{fill:#ad688b;}.c{fill:#692f56;}</style></defs><title>Mobile-Services_AmazonSNS</title>
    <g transform= "translate (-2,0) scale (0.95)"><polygon class="a" points="26.5 62.2 19.4 60.2 12.7 52.6 20.2 53.2 26.5 62.2"/>
    <polygon class="b" points="26.5 62.2 31.6 51.6 26.8 50.9 20.2 53.2 26.5 62.2"/>
    <polygon class="a" points="10.1 57.2 6.1 56.1 1.7 51 6.4 51.8 10.1 57.2"/>
    <polygon class="b" points="10.1 57.2 13 51.2 10.3 50.8 6.4 51.8 10.1 57.2"/>
    <polygon class="c" points="0 51.2 4.1 52.1 24 34.7 4.1 15.3 0 17.3 0 51.2"/>
    <polygon class="b" points="19.8 18.7 19.8 50.6 4.1 52.1 4.1 15.3 19.8 18.7"/>
    <polygon class="c" points="9.1 53.1 16.1 54.5 35.4 32.2 16.1 9.2 9.1 12.7 9.1 53.1"/>
    <polygon class="b" points="55.9 21.9 55.9 49.4 16.1 54.5 16.1 9.2 55.9 21.9"/>
    <polygon class="a" points="48.7 68.8 38.7 65.9 29.1 55.1 39.8 56 48.7 68.8"/>
    <polygon class="b" points="48.7 68.8 55.9 53.7 49.2 52.7 39.8 56 48.7 68.8"/>
    <polygon class="c" points="24 56 34.3 58 48.2 29 34.3 0 24 5.2 24 56"/>
    <polygon class="b" points="34.3 58 68.6 51.1 68.6 17.2 34.3 0 34.3 58"/></g></svg>