<svg xmlns="http://www.w3.org/2000/svg" viewBox="0 0 68.2 82.4"><defs><style>.a{fill:#8c3123;}.b{fill:#e05243;}.c{fill:#5e1f18;}.d{fill:#f2b0a9;}</style></defs><title>Storage-Content-Delivery_AmazonS3</title>
    <polygon class="a" points="5.5 14.3 0 17.1 0 65.2 5.5 68 19 41.1 5.5 14.3"/>
    <polygon class="b" points="34.1 61 5.5 68 5.5 14.3 34.1 21.2 47.6 41.2 34.1 61"/>
    <polygon class="a" points="34.1 61 62.7 68 67.6 41.8 62.7 14.3 34.1 21.2 34.1 61"/>
    <polygon class="b" points="62.7 14.3 68.2 17.1 68.2 65.2 62.7 68 62.7 14.3"/>
    <polygon class="a" points="21.6 50 34.1 51.6 44 41.2 34.1 30.8 21.6 32.4 21.6 50"/>
    <polygon class="c" points="46.6 23.9 34.1 26.2 21.6 23.9 34.1 0 46.6 23.9"/>
    <polygon class="d" points="46.6 58.5 34.1 56.2 21.6 58.5 34.1 82.4 46.6 58.5"/>
    <polygon class="b" points="46.6 23.9 34.1 20.8 34.1 0 46.6 6.3 46.6 23.9"/>
    <polygon class="a" points="21.6 23.9 34.1 20.8 34.1 0 21.6 6.3 21.6 23.9"/>
    <polygon class="b" points="34.1 82.4 46.6 76.1 46.6 58.5 34.1 61.6 34.1 82.4"/>
    <polygon class="a" points="34.1 82.4 21.6 76.1 21.6 58.5 34.1 61.6 34.1 82.4"/>
    <polygon class="b" points="46.6 50 34.1 51.6 34.1 30.8 46.6 32.4 46.6 50"/></svg>