<?xml version="1.0" ?><!DOCTYPE svg  PUBLIC '-//W3C//DTD SVG 1.0//EN'  'http://www.w3.org/TR/2001/REC-SVG-20010904/DTD/svg10.dtd'>
<svg enable-background="new 0 0 100 100" height="100px" id="Layer_1" version="1.0" viewBox="0 0 100 100" width="100px" xml:space="preserve" xmlns="http://www.w3.org/2000/svg" xmlns:xlink="http://www.w3.org/1999/xlink"><g><g><g><g><path d="M46.559,76.544h-3.25v-4.771h11.408V59.816c0-2.481,2.02-4.5,4.5-4.5h4.609      c-0.287-0.159-0.613-0.258-0.965-0.258H43.309v-3.155h19.553c1.105,0,2-0.896,2-2V37.189c0-1.104-0.895-2-2-2H43.309v-3.155      h19.715c1.105,0,2-0.896,2-2V17.32c0-1.104-0.895-2-2-2H18.084c-1.105,0-2,0.896-2,2v12.714c0,1.104,0.895,2,2,2h19.391v3.155      H17.92c-1.104,0-2,0.896-2,2v12.714c0,1.104,0.896,2,2,2h19.555v3.155H17.92c-1.104,0-2,0.896-2,2v12.715c0,1.104,0.896,2,2,2      h19.555v4.771h-3.25c-1.656,0-3,1.344-3,3v1.916c0,1.657,1.344,3,3,3h12.334c1.656,0,3-1.343,3-3v-1.916      C49.559,77.888,48.215,76.544,46.559,76.544z M46.904,58.916h1v9h-1V58.916z M60.061,37.395c1.225,0,2.219,0.993,2.219,2.219      s-0.994,2.219-2.219,2.219c-1.227,0-2.219-0.993-2.219-2.219S58.834,37.395,60.061,37.395z M56.18,38.379      c0.682,0,1.234,0.553,1.234,1.234s-0.553,1.234-1.234,1.234s-1.234-0.553-1.234-1.234S55.498,38.379,56.18,38.379z       M46.904,39.047h1v9h-1V39.047z M20.775,28.178h-1v-9h1V28.178z M24.941,28.178h-1v-9h1V28.178z M29.691,28.178h-1v-9h1V28.178z       M34.316,28.178h-1v-9h1V28.178z M60.223,17.525c1.225,0,2.219,0.993,2.219,2.219s-0.994,2.219-2.219,2.219      c-1.227,0-2.219-0.993-2.219-2.219S58.996,17.525,60.223,17.525z M56.342,18.51c0.682,0,1.234,0.553,1.234,1.234      s-0.553,1.234-1.234,1.234s-1.234-0.553-1.234-1.234S55.66,18.51,56.342,18.51z M47.066,19.178h1v9h-1V19.178z M42.316,19.178h1      v9h-1V19.178z M20.611,48.047h-1v-9h1V48.047z M24.779,48.047h-1v-9h1V48.047z M29.529,48.047h-1v-9h1V48.047z M34.154,48.047      h-1v-9h1V48.047z M20.611,67.916h-1v-9h1V67.916z M24.779,67.916h-1v-9h1V67.916z M29.529,67.916h-1v-9h1V67.916z       M34.154,67.916h-1v-9h1V67.916z M38.404,67.916h-1v-9h1V67.916z M38.404,48.047h-1v-9h1V48.047z M38.566,28.178h-1v-9h1V28.178      z M43.154,67.916h-1v-9h1V67.916z M43.154,48.047h-1v-9h1V48.047z" fill="#231F20"/>
<path d="M29.896,77.748h-5.299v5.334h5.299c-0.217-0.527-0.34-1.104-0.34-1.709v-1.916      C29.557,78.852,29.68,78.276,29.896,77.748z" fill="#231F20"/>
<path d="M50.547,77.748c0.219,0.528,0.342,1.104,0.342,1.709v1.916c0,0.605-0.123,1.182-0.342,1.709h4.17v-5.334      H50.547z" fill="#231F20"/></g>
<g><path d="M81.08,57.816H60.217c-1.656,0-3,1.343-3,3V81.68c0,1.657,1.344,3,3,3H81.08c1.658,0,3-1.343,3-3V60.816      C84.08,59.159,82.738,57.816,81.08,57.816z M70.648,80.165c-4.916,0-8.916-4-8.916-8.917c0-4.916,4-8.917,8.916-8.917      c4.918,0,8.918,4.001,8.918,8.917C79.566,76.165,75.566,80.165,70.648,80.165z" fill="#231F20"/></g></g></g>
<g>
<path d="M68.756,69.305h3.561c0.246,0,0.445-0.199,0.445-0.445v-3.561c0-0.246-0.199-0.444-0.445-0.444h-3.561    c-0.246,0-0.445,0.198-0.445,0.444v3.561C68.311,69.105,68.51,69.305,68.756,69.305z" fill="#231F20"/>
<path d="M76.406,71.918h-3.561c-0.244,0-0.443,0.2-0.443,0.446v3.56c0,0.246,0.199,0.445,0.443,0.445h3.561    c0.246,0,0.445-0.199,0.445-0.445v-3.56C76.852,72.118,76.652,71.918,76.406,71.918z" fill="#231F20"/>
<path d="M68.451,71.918h-3.561c-0.246,0-0.443,0.2-0.443,0.446v3.56c0,0.246,0.197,0.445,0.443,0.445h3.561    c0.246,0,0.445-0.199,0.445-0.445v-3.56C68.896,72.118,68.697,71.918,68.451,71.918z" fill="#231F20"/>
<polygon fill="#231F20" points="73.871,71.53 74.314,71.53 74.314,71.011 74.314,70.695 74.314,70.565 70.775,70.565     70.775,69.735 70.316,69.735 70.316,70.565 66.756,70.565 66.756,70.619 66.756,71.011 66.756,71.53 67.201,71.53 67.201,71.011     70.316,71.011 70.775,71.011 73.871,71.011   "/>
</g>
<rect fill="#231F20" height="0.604" width="0.813" x="73.695" y="71.001"/>
<polygon fill="#231F20" points="70.945,70.256 70.945,69.735 70.133,69.735 70.133,70.256 66.586,70.256 66.586,71.001    66.586,71.604 67.398,71.604 67.398,71.001 74.508,71.001 74.508,70.256  "/></g></svg>