<!DOCTYPE svg PUBLIC "-//W3C//DTD SVG 1.1//EN" "http://www.w3.org/Graphics/SVG/1.1/DTD/svg11.dtd">
<svg version="1.1" xmlns="http://www.w3.org/2000/svg" xmlns:xlink="http://www.w3.org/1999/xlink" >
<g fill="#428bca" transform="translate (14,12) scale (0.6)">
<g fill="#428bca" transform="translate (-18,-12) scale (0.66)">
<path d="M31.462,21.584C30.271,22.497,28.688,23,27.003,23s-3.27-0.502-4.462-1.416L0,4.312V37c0,1.656,1.343,3,3,3   h50c1.657,0,3-1.344,3-3V3c0-0.07-0.016-0.135-0.021-0.203L31.462,21.584z"></path>
<path d="M28.21,19.091l24.899-19.08C53.072,0.01,53.037,0,53,0H3C2.432,0,1.907,0.167,1.454,0.441l24.339,18.65   C26.439,19.585,27.563,19.587,28.21,19.091z"></path>
</g>
</g>
</svg>
