<!DOCTYPE svg PUBLIC "-//W3C//DTD SVG 1.1//EN" "http://www.w3.org/Graphics/SVG/1.1/DTD/svg11.dtd">
<svg version="1.1" xmlns="http://www.w3.org/2000/svg" xmlns:xlink="http://www.w3.org/1999/xlink" >
<g fill="#428bca" transform="translate (4,2) scale (0.4)">
<g transform="translate (-5,-2) scale (1.8)" data-reactid=".4.0"><path d="M22.9,3H21V1.1C21,0.5,20.5,0,19.9,0H1.1C0.5,0,0,0.5,0,1.1v18.8C0,20.5,0.5,21,1.1,21H3v1.9C3,23.5,3.5,24,4.1,24h18.8   c0.6,0,1.1-0.5,1.1-1.1V4.1C24,3.5,23.5,3,22.9,3z M3,4.1V19H2V2h17v1H4.1C3.5,3,3,3.5,3,4.1z M22,22H5V5h17V22z" data-reactid=".4.0.0">
</path></g>
<g transform="translate (4,4) scale (0.8)" data-reactid=".4.1"><path d="M28,16H10c-0.552,0-1,0.448-1,1v2c0,0.552,0.448,1,1,1h18c0.553,0,1-0.448,1-1v-2   C29,16.448,28.553,16,28,16z" data-reactid=".4.1.0"></path>
<path d="M28,23H10c-0.552,0-1,0.447-1,1v2c0,0.553,0.448,1,1,1h18c0.553,0,1-0.447,1-1v-2   C29,23.447,28.553,23,28,23z" data-reactid=".4.1.1"></path>
<path d="M28,30H10c-0.552,0-1,0.447-1,1v2c0,0.553,0.448,1,1,1h18c0.553,0,1-0.447,1-1v-2   C29,30.447,28.553,30,28,30z" data-reactid=".4.1.2"></path>
<path d="M28,9H10c-0.552,0-1,0.448-1,1v2c0,0.552,0.448,1,1,1h18c0.553,0,1-0.448,1-1v-2C29,9.448,28.553,9,28,9z" data-reactid=".4.1.3"></path>
</g>
<path transform="translate (22,24) scale (1.5)" d="M19.43 12.98c.04-.32.07-.64.07-.98s-.03-.66-.07-.98l2.11-1.65c.19-.15.24-.42.12-.64l-2-3.46c-.12-.22-.39-.3-.61-.22l-2.49 1c-.52-.4-1.08-.73-1.69-.98l-.38-2.65c-.03-.24-.24-.42-.49-.42h-4c-.25 0-.46.18-.49.42l-.38 2.65c-.61.25-1.17.59-1.69.98l-2.49-1c-.23-.09-.49 0-.61.22l-2 3.46c-.13.22-.07.49.12.64l2.11 1.65c-.04.32-.07.65-.07.98s.03.66.07.98l-2.11 1.65c-.19.15-.24.42-.12.64l2 3.46c.12.22.39.3.61.22l2.49-1c.52.4 1.08.73 1.69.98l.38 2.65c.03.24.24.42.49.42h4c.25 0 .46-.18.49-.42l.38-2.65c.61-.25 1.17-.59 1.69-.98l2.49 1c.23.09.49 0 .61-.22l2-3.46c.12-.22.07-.49-.12-.64l-2.11-1.65zm-7.43 2.52c-1.93 0-3.5-1.57-3.5-3.5s1.57-3.5 3.5-3.5 3.5 1.57 3.5 3.5-1.573.5-3.5 3.5z" data-reactid=".4.2"></path>
</g>
</svg>
