<!DOCTYPE svg  PUBLIC '-//W3C//DTD SVG 1.1//EN'  'http://www.w3.org/Graphics/SVG/1.1/DTD/svg11.dtd'>
<svg xmlns="http://www.w3.org/2000/svg" xmlns:xlink="http://www.w3.org/1999/xlink">
    <g fill="#428bca" transform="translate (0,0) scale (0.15)">
        <g>
        <path d="M178.836,0H21.162c-5.116,0-9.301,4.185-9.301,9.303v27.906c0,5.116,4.185,9.303,9.301,9.303h157.674    c5.116,0,9.304-4.187,9.304-9.303V9.303C188.14,4.185,183.952,0,178.836,0z M133.298,25.526h-23.83    c-1.245,0-2.27-1.023-2.27-2.268c0-1.25,1.024-2.272,2.27-2.272h23.83c1.247,0,2.271,1.023,2.271,2.272    C135.568,24.503,134.545,25.526,133.298,25.526z M147.674,28.361c-2.822,0-5.109-2.287-5.109-5.103    c0-2.824,2.287-5.109,5.109-5.109c2.818,0,5.104,2.285,5.104,5.109C152.777,26.074,150.492,28.361,147.674,28.361z     M164.882,28.361c-2.82,0-5.107-2.287-5.107-5.103c0-2.824,2.287-5.109,5.107-5.109c2.822,0,5.107,2.285,5.107,5.109    C169.989,26.074,167.704,28.361,164.882,28.361z" />
        <path d="M178.836,55.815H21.162c-5.116,0-9.301,4.186-9.301,9.299v27.91c0,5.116,4.185,9.299,9.301,9.299h157.674    c5.116,0,9.304-4.183,9.304-9.299v-27.91C188.14,60.001,183.952,55.815,178.836,55.815z M133.298,81.338h-23.83    c-1.245,0-2.27-1.019-2.27-2.268c0-1.248,1.024-2.268,2.27-2.268h23.83c1.247,0,2.271,1.021,2.271,2.268    C135.568,80.319,134.545,81.338,133.298,81.338z M147.674,84.175c-2.822,0-5.109-2.285-5.109-5.105    c0-2.82,2.287-5.105,5.109-5.105c2.818,0,5.104,2.285,5.104,5.105C152.777,81.89,150.492,84.175,147.674,84.175z M164.882,84.175    c-2.82,0-5.107-2.285-5.107-5.105c0-2.82,2.287-5.105,5.107-5.105c2.822,0,5.107,2.285,5.107,5.105    C169.989,81.89,167.704,84.175,164.882,84.175z" />
        <path d="M178.836,111.627H21.162c-5.116,0-9.301,4.189-9.301,9.304v27.909c0,5.114,4.185,9.3,9.301,9.3h157.674    c5.116,0,9.304-4.186,9.304-9.3v-27.909C188.14,115.816,183.952,111.627,178.836,111.627z M133.298,137.153h-23.83    c-1.245,0-2.27-1.021-2.27-2.268c0-1.248,1.024-2.272,2.27-2.272h23.83c1.247,0,2.271,1.024,2.271,2.272    C135.568,136.133,134.545,137.153,133.298,137.153z M147.674,139.99c-2.822,0-5.109-2.285-5.109-5.104    c0-2.82,2.287-5.107,5.109-5.107c2.818,0,5.104,2.287,5.104,5.107C152.777,137.705,150.492,139.99,147.674,139.99z     M164.882,139.99c-2.82,0-5.107-2.285-5.107-5.104c0-2.82,2.287-5.107,5.107-5.107c2.822,0,5.107,2.287,5.107,5.107    C169.989,137.705,167.704,139.99,164.882,139.99z" />
        </g>
        <g>
            <path d="M79.07,190.232c0,1.536-1.256,2.792-2.792,2.792h-40.93c-1.534,0-2.791-1.256-2.791-2.792v-3.721    c0-1.532,1.256-2.79,2.791-2.79h40.93c1.536,0,2.792,1.258,2.792,2.79V190.232z"/>
            <path d="M167.442,190.232c0,1.536-1.258,2.792-2.792,2.792h-40.93c-1.536,0-2.79-1.256-2.79-2.792v-3.721    c0-1.532,1.254-2.79,2.79-2.79h40.93c1.534,0,2.792,1.258,2.792,2.79V190.232z" />
            <path d="M110.812,177.563c-0.548-0.548-1.262-0.819-1.977-0.819h-4.186v-6.512c0-0.714-0.27-1.425-0.815-1.973    c-0.543-0.545-1.26-0.817-1.973-0.817h-3.721c-0.715,0-1.429,0.272-1.975,0.817c-0.545,0.548-0.819,1.259-0.819,1.973v6.512    h-4.185c-0.71,0-1.425,0.271-1.973,0.819c-0.543,0.543-0.819,1.258-0.819,1.973v17.674c0,0.715,0.276,1.429,0.819,1.975    c0.548,0.544,1.263,0.815,1.973,0.815h17.674c0.715,0,1.429-0.271,1.977-0.815c0.544-0.546,0.817-1.26,0.817-1.975v-17.674    C111.629,178.821,111.355,178.106,110.812,177.563z" />
        </g></g></svg>